<svg xmlns="http://www.w3.org/2000/svg" width="1200" height="630" viewBox="0 0 1200 630">
  <defs>
    <radialGradient id="bg" cx="50%" cy="50%" r="70%">
      <stop offset="0%" stop-color="#1a1a2e"/>
      <stop offset="60%" stop-color="#16213e"/>
      <stop offset="100%" stop-color="#0f0f23"/>
    </radialGradient>
    <linearGradient id="accent" x1="0%" y1="0%" x2="100%" y2="0%">
      <stop offset="0%" stop-color="#8b5cf6"/>
      <stop offset="100%" stop-color="#6366f1"/>
    </linearGradient>
  </defs>

  <rect width="1200" height="630" fill="url(#bg)"/>

  <!-- Stars -->
  <circle cx="100" cy="80" r="1.5" fill="white" opacity="0.6"/>
  <circle cx="300" cy="50" r="1" fill="white" opacity="0.4"/>
  <circle cx="600" cy="30" r="2" fill="white" opacity="0.5"/>
  <circle cx="900" cy="70" r="1.5" fill="white" opacity="0.6"/>
  <circle cx="1100" cy="45" r="1" fill="white" opacity="0.4"/>
  <circle cx="150" cy="200" r="1" fill="white" opacity="0.3"/>
  <circle cx="1050" cy="300" r="1.5" fill="white" opacity="0.5"/>
  <circle cx="200" cy="500" r="1" fill="white" opacity="0.4"/>
  <circle cx="1000" cy="550" r="2" fill="white" opacity="0.3"/>
  <circle cx="750" cy="580" r="1" fill="white" opacity="0.5"/>

  <!-- Glow blob -->
  <ellipse cx="600" cy="315" rx="320" ry="180" fill="#8b5cf6" opacity="0.06"/>

  <!-- Logo text -->
  <text x="600" y="240" text-anchor="middle" font-family="Arial Black, sans-serif" font-size="96" font-weight="900" fill="url(#accent)">ASPENINI</text>
  <text x="600" y="330" text-anchor="middle" font-family="Arial Black, sans-serif" font-size="72" font-weight="900" fill="white" opacity="0.95">FUN</text>

  <!-- Tagline -->
  <text x="600" y="410" text-anchor="middle" font-family="Arial, sans-serif" font-size="28" fill="white" opacity="0.55">Free browser games  no download required</text>

  <!-- Game icons row -->
  <text x="390" y="510" text-anchor="middle" font-size="48"><°</text>
  <text x="470" y="510" text-anchor="middle" font-size="48">`</text>
  <text x="550" y="510" text-anchor="middle" font-size="48"><«</text>
  <text x="630" y="510" text-anchor="middle" font-size="48">=±</text>
  <text x="710" y="510" text-anchor="middle" font-size="48"><¯</text>
  <text x="790" y="510" text-anchor="middle" font-size="48"><®</text>
</svg>
